<?xml version='1.0' encoding='UTF-8' standalone='no'?>
<svg height="314pt" xmlns:xlink="http://www.w3.org/1999/xlink" width="418pt" viewBox="0 0 418 314" xmlns="http://www.w3.org/2000/svg">
 <title>Figure 1</title>
 <desc>
Creator: GL2PS 1.4.2, (C) 1999-2020 C. Geuzaine
For: Octave
CreationDate: Wed Nov  1 09:51:29 2023
</desc>
 <defs/>
 <polygon fill="#000000" points="0,0 418,0 418,314 0,314"/>
 <g>
  <polygon shape-rendering="crispEdges" fill="#000000" points="0,314 418,314 418,0 0,0"/>
  <clipPath id="cp00418314">
   <polygon points="0,314 418,314 418,0 0,0"/>
  </clipPath>
  <g clip-path="url(#cp00418314)">
   <polygon shape-rendering="crispEdges" fill="#000000" points="54.4343,279.499 378.946,279.499 378.946,23.5533 54.4343,23.5533"/>
   <polyline stroke-dasharray="16,0" stroke-linejoin="miter" stroke-opacity="0.15" stroke-width="0.5" fill="none" stroke="#ffffff" points="54.4343,279.499 54.4343,23.5533" stroke-linecap="butt"/>
   <polyline stroke-dasharray="16,0" stroke-linejoin="miter" stroke-opacity="0.15" stroke-width="0.5" fill="none" stroke="#ffffff" points="70.6599,279.499 70.6599,23.5533" stroke-linecap="butt"/>
   <polyline stroke-dasharray="16,0" stroke-linejoin="miter" stroke-opacity="0.15" stroke-width="0.5" fill="none" stroke="#ffffff" points="86.8855,279.499 86.8855,23.5533" stroke-linecap="butt"/>
   <polyline stroke-dasharray="16,0" stroke-linejoin="miter" stroke-opacity="0.15" stroke-width="0.5" fill="none" stroke="#ffffff" points="103.111,279.499 103.111,23.5533" stroke-linecap="butt"/>
   <polyline stroke-dasharray="16,0" stroke-linejoin="miter" stroke-opacity="0.15" stroke-width="0.5" fill="none" stroke="#ffffff" points="119.337,279.499 119.337,23.5533" stroke-linecap="butt"/>
   <polyline stroke-dasharray="16,0" stroke-linejoin="miter" stroke-opacity="0.15" stroke-width="0.5" fill="none" stroke="#ffffff" points="135.562,279.499 135.562,23.5533" stroke-linecap="butt"/>
   <polyline stroke-dasharray="16,0" stroke-linejoin="miter" stroke-opacity="0.15" stroke-width="0.5" fill="none" stroke="#ffffff" points="151.788,279.499 151.788,23.5533" stroke-linecap="butt"/>
   <polyline stroke-dasharray="16,0" stroke-linejoin="miter" stroke-opacity="0.15" stroke-width="0.5" fill="none" stroke="#ffffff" points="168.014,279.499 168.014,23.5533" stroke-linecap="butt"/>
   <polyline stroke-dasharray="16,0" stroke-linejoin="miter" stroke-opacity="0.15" stroke-width="0.5" fill="none" stroke="#ffffff" points="184.239,279.499 184.239,23.5533" stroke-linecap="butt"/>
   <polyline stroke-dasharray="16,0" stroke-linejoin="miter" stroke-opacity="0.15" stroke-width="0.5" fill="none" stroke="#ffffff" points="200.465,279.499 200.465,23.5533" stroke-linecap="butt"/>
   <polyline stroke-dasharray="16,0" stroke-linejoin="miter" stroke-opacity="0.15" stroke-width="0.5" fill="none" stroke="#ffffff" points="216.69,279.499 216.69,23.5533" stroke-linecap="butt"/>
   <polyline stroke-dasharray="16,0" stroke-linejoin="miter" stroke-opacity="0.15" stroke-width="0.5" fill="none" stroke="#ffffff" points="232.916,279.499 232.916,23.5533" stroke-linecap="butt"/>
   <polyline stroke-dasharray="16,0" stroke-linejoin="miter" stroke-opacity="0.15" stroke-width="0.5" fill="none" stroke="#ffffff" points="249.142,279.499 249.142,23.5533" stroke-linecap="butt"/>
   <polyline stroke-dasharray="16,0" stroke-linejoin="miter" stroke-opacity="0.15" stroke-width="0.5" fill="none" stroke="#ffffff" points="265.367,279.499 265.367,23.5533" stroke-linecap="butt"/>
   <polyline stroke-dasharray="16,0" stroke-linejoin="miter" stroke-opacity="0.15" stroke-width="0.5" fill="none" stroke="#ffffff" points="281.593,279.499 281.593,23.5533" stroke-linecap="butt"/>
   <polyline stroke-dasharray="16,0" stroke-linejoin="miter" stroke-opacity="0.15" stroke-width="0.5" fill="none" stroke="#ffffff" points="297.818,279.499 297.818,23.5533" stroke-linecap="butt"/>
   <polyline stroke-dasharray="16,0" stroke-linejoin="miter" stroke-opacity="0.15" stroke-width="0.5" fill="none" stroke="#ffffff" points="314.044,279.499 314.044,23.5533" stroke-linecap="butt"/>
   <polyline stroke-dasharray="16,0" stroke-linejoin="miter" stroke-opacity="0.15" stroke-width="0.5" fill="none" stroke="#ffffff" points="330.27,279.499 330.27,23.5533" stroke-linecap="butt"/>
   <polyline stroke-dasharray="16,0" stroke-linejoin="miter" stroke-opacity="0.15" stroke-width="0.5" fill="none" stroke="#ffffff" points="346.495,279.499 346.495,23.5533" stroke-linecap="butt"/>
   <polyline stroke-dasharray="16,0" stroke-linejoin="miter" stroke-opacity="0.15" stroke-width="0.5" fill="none" stroke="#ffffff" points="362.721,279.499 362.721,23.5533" stroke-linecap="butt"/>
   <polyline stroke-dasharray="16,0" stroke-linejoin="miter" stroke-opacity="0.15" stroke-width="0.5" fill="none" stroke="#ffffff" points="378.946,279.499 378.946,23.5533" stroke-linecap="butt"/>
   <polyline stroke-linejoin="miter" stroke-width="0.5" fill="none" stroke="#ffffff" points="54.4343,279.499 54.4343,276.255" stroke-linecap="butt"/>
   <polyline stroke-linejoin="miter" stroke-width="0.5" fill="none" stroke="#ffffff" points="54.4343,23.5533 54.4343,26.7977" stroke-linecap="butt"/>
   <polyline stroke-linejoin="miter" stroke-width="0.5" fill="none" stroke="#ffffff" points="70.6599,279.499 70.6599,276.255" stroke-linecap="butt"/>
   <polyline stroke-linejoin="miter" stroke-width="0.5" fill="none" stroke="#ffffff" points="70.6599,23.5533 70.6599,26.7977" stroke-linecap="butt"/>
   <polyline stroke-linejoin="miter" stroke-width="0.5" fill="none" stroke="#ffffff" points="86.8855,279.499 86.8855,276.255" stroke-linecap="butt"/>
   <polyline stroke-linejoin="miter" stroke-width="0.5" fill="none" stroke="#ffffff" points="86.8855,23.5533 86.8855,26.7977" stroke-linecap="butt"/>
   <polyline stroke-linejoin="miter" stroke-width="0.5" fill="none" stroke="#ffffff" points="103.111,279.499 103.111,276.255" stroke-linecap="butt"/>
   <polyline stroke-linejoin="miter" stroke-width="0.5" fill="none" stroke="#ffffff" points="103.111,23.5533 103.111,26.7977" stroke-linecap="butt"/>
   <polyline stroke-linejoin="miter" stroke-width="0.5" fill="none" stroke="#ffffff" points="119.337,279.499 119.337,276.255" stroke-linecap="butt"/>
   <polyline stroke-linejoin="miter" stroke-width="0.5" fill="none" stroke="#ffffff" points="119.337,23.5533 119.337,26.7977" stroke-linecap="butt"/>
   <polyline stroke-linejoin="miter" stroke-width="0.5" fill="none" stroke="#ffffff" points="135.562,279.499 135.562,276.255" stroke-linecap="butt"/>
   <polyline stroke-linejoin="miter" stroke-width="0.5" fill="none" stroke="#ffffff" points="135.562,23.5533 135.562,26.7977" stroke-linecap="butt"/>
   <polyline stroke-linejoin="miter" stroke-width="0.5" fill="none" stroke="#ffffff" points="151.788,279.499 151.788,276.255" stroke-linecap="butt"/>
   <polyline stroke-linejoin="miter" stroke-width="0.5" fill="none" stroke="#ffffff" points="151.788,23.5533 151.788,26.7977" stroke-linecap="butt"/>
   <polyline stroke-linejoin="miter" stroke-width="0.5" fill="none" stroke="#ffffff" points="168.014,279.499 168.014,276.255" stroke-linecap="butt"/>
   <polyline stroke-linejoin="miter" stroke-width="0.5" fill="none" stroke="#ffffff" points="168.014,23.5533 168.014,26.7977" stroke-linecap="butt"/>
   <polyline stroke-linejoin="miter" stroke-width="0.5" fill="none" stroke="#ffffff" points="184.239,279.499 184.239,276.255" stroke-linecap="butt"/>
   <polyline stroke-linejoin="miter" stroke-width="0.5" fill="none" stroke="#ffffff" points="184.239,23.5533 184.239,26.7977" stroke-linecap="butt"/>
   <polyline stroke-linejoin="miter" stroke-width="0.5" fill="none" stroke="#ffffff" points="200.465,279.499 200.465,276.255" stroke-linecap="butt"/>
   <polyline stroke-linejoin="miter" stroke-width="0.5" fill="none" stroke="#ffffff" points="200.465,23.5533 200.465,26.7977" stroke-linecap="butt"/>
   <polyline stroke-linejoin="miter" stroke-width="0.5" fill="none" stroke="#ffffff" points="216.69,279.499 216.69,276.255" stroke-linecap="butt"/>
   <polyline stroke-linejoin="miter" stroke-width="0.5" fill="none" stroke="#ffffff" points="216.69,23.5533 216.69,26.7977" stroke-linecap="butt"/>
   <polyline stroke-linejoin="miter" stroke-width="0.5" fill="none" stroke="#ffffff" points="232.916,279.499 232.916,276.255" stroke-linecap="butt"/>
   <polyline stroke-linejoin="miter" stroke-width="0.5" fill="none" stroke="#ffffff" points="232.916,23.5533 232.916,26.7977" stroke-linecap="butt"/>
   <polyline stroke-linejoin="miter" stroke-width="0.5" fill="none" stroke="#ffffff" points="249.142,279.499 249.142,276.255" stroke-linecap="butt"/>
   <polyline stroke-linejoin="miter" stroke-width="0.5" fill="none" stroke="#ffffff" points="249.142,23.5533 249.142,26.7977" stroke-linecap="butt"/>
   <polyline stroke-linejoin="miter" stroke-width="0.5" fill="none" stroke="#ffffff" points="265.367,279.499 265.367,276.255" stroke-linecap="butt"/>
   <polyline stroke-linejoin="miter" stroke-width="0.5" fill="none" stroke="#ffffff" points="265.367,23.5533 265.367,26.7977" stroke-linecap="butt"/>
   <polyline stroke-linejoin="miter" stroke-width="0.5" fill="none" stroke="#ffffff" points="281.593,279.499 281.593,276.255" stroke-linecap="butt"/>
   <polyline stroke-linejoin="miter" stroke-width="0.5" fill="none" stroke="#ffffff" points="281.593,23.5533 281.593,26.7977" stroke-linecap="butt"/>
   <polyline stroke-linejoin="miter" stroke-width="0.5" fill="none" stroke="#ffffff" points="297.818,279.499 297.818,276.255" stroke-linecap="butt"/>
   <polyline stroke-linejoin="miter" stroke-width="0.5" fill="none" stroke="#ffffff" points="297.818,23.5533 297.818,26.7977" stroke-linecap="butt"/>
   <polyline stroke-linejoin="miter" stroke-width="0.5" fill="none" stroke="#ffffff" points="314.044,279.499 314.044,276.255" stroke-linecap="butt"/>
   <polyline stroke-linejoin="miter" stroke-width="0.5" fill="none" stroke="#ffffff" points="314.044,23.5533 314.044,26.7977" stroke-linecap="butt"/>
   <polyline stroke-linejoin="miter" stroke-width="0.5" fill="none" stroke="#ffffff" points="330.27,279.499 330.27,276.255" stroke-linecap="butt"/>
   <polyline stroke-linejoin="miter" stroke-width="0.5" fill="none" stroke="#ffffff" points="330.27,23.5533 330.27,26.7977" stroke-linecap="butt"/>
   <polyline stroke-linejoin="miter" stroke-width="0.5" fill="none" stroke="#ffffff" points="346.495,279.499 346.495,276.255" stroke-linecap="butt"/>
   <polyline stroke-linejoin="miter" stroke-width="0.5" fill="none" stroke="#ffffff" points="346.495,23.5533 346.495,26.7977" stroke-linecap="butt"/>
   <polyline stroke-linejoin="miter" stroke-width="0.5" fill="none" stroke="#ffffff" points="362.721,279.499 362.721,276.255" stroke-linecap="butt"/>
   <polyline stroke-linejoin="miter" stroke-width="0.5" fill="none" stroke="#ffffff" points="362.721,23.5533 362.721,26.7977" stroke-linecap="butt"/>
   <polyline stroke-linejoin="miter" stroke-width="0.5" fill="none" stroke="#ffffff" points="378.946,279.499 378.946,276.255" stroke-linecap="butt"/>
   <polyline stroke-linejoin="miter" stroke-width="0.5" fill="none" stroke="#ffffff" points="378.946,23.5533 378.946,26.7977" stroke-linecap="butt"/>
   <g font-style="normal" transform="translate(45.4343,298.497) rotate(-0,9,-10)" font-family="FreeSans" font-weight="normal" font-size="12" xml:space="preserve">
    <text x="0 4 11 " y="-0" fill="rgb(255,255,255)">-10</text>
   </g>
   <g font-style="normal" transform="translate(65.1599,298.497) rotate(-0,5.5,-10)" font-family="FreeSans" font-weight="normal" font-size="12" xml:space="preserve">
    <text x="0 4 " y="-0" fill="rgb(255,255,255)">-9</text>
   </g>
   <g font-style="normal" transform="translate(81.3855,298.497) rotate(-0,5.5,-10)" font-family="FreeSans" font-weight="normal" font-size="12" xml:space="preserve">
    <text x="0 4 " y="-0" fill="rgb(255,255,255)">-8</text>
   </g>
   <g font-style="normal" transform="translate(97.6111,298.497) rotate(-0,5.5,-10)" font-family="FreeSans" font-weight="normal" font-size="12" xml:space="preserve">
    <text x="0 4 " y="-0" fill="rgb(255,255,255)">-7</text>
   </g>
   <g font-style="normal" transform="translate(113.837,298.497) rotate(-0,5.5,-10)" font-family="FreeSans" font-weight="normal" font-size="12" xml:space="preserve">
    <text x="0 4 " y="-0" fill="rgb(255,255,255)">-6</text>
   </g>
   <g font-style="normal" transform="translate(130.062,298.497) rotate(-0,5.5,-10)" font-family="FreeSans" font-weight="normal" font-size="12" xml:space="preserve">
    <text x="0 4 " y="-0" fill="rgb(255,255,255)">-5</text>
   </g>
   <g font-style="normal" transform="translate(146.288,298.497) rotate(-0,5.5,-10)" font-family="FreeSans" font-weight="normal" font-size="12" xml:space="preserve">
    <text x="0 4 " y="-0" fill="rgb(255,255,255)">-4</text>
   </g>
   <g font-style="normal" transform="translate(162.514,298.497) rotate(-0,5.5,-10)" font-family="FreeSans" font-weight="normal" font-size="12" xml:space="preserve">
    <text x="0 4 " y="-0" fill="rgb(255,255,255)">-3</text>
   </g>
   <g font-style="normal" transform="translate(178.739,298.497) rotate(-0,5.5,-10)" font-family="FreeSans" font-weight="normal" font-size="12" xml:space="preserve">
    <text x="0 4 " y="-0" fill="rgb(255,255,255)">-2</text>
   </g>
   <g font-style="normal" transform="translate(194.965,298.497) rotate(-0,5.5,-10)" font-family="FreeSans" font-weight="normal" font-size="12" xml:space="preserve">
    <text x="0 4 " y="-0" fill="rgb(255,255,255)">-1</text>
   </g>
   <g font-style="normal" transform="translate(213.19,298.497) rotate(-0,3.5,-10)" font-family="FreeSans" font-weight="normal" font-size="12" xml:space="preserve">
    <text x="0 " y="-0" fill="rgb(255,255,255)">0</text>
   </g>
   <g font-style="normal" transform="translate(229.416,298.497) rotate(-0,3.5,-10)" font-family="FreeSans" font-weight="normal" font-size="12" xml:space="preserve">
    <text x="0 " y="-0" fill="rgb(255,255,255)">1</text>
   </g>
   <g font-style="normal" transform="translate(245.642,298.497) rotate(-0,3.5,-10)" font-family="FreeSans" font-weight="normal" font-size="12" xml:space="preserve">
    <text x="0 " y="-0" fill="rgb(255,255,255)">2</text>
   </g>
   <g font-style="normal" transform="translate(261.867,298.497) rotate(-0,3.5,-10)" font-family="FreeSans" font-weight="normal" font-size="12" xml:space="preserve">
    <text x="0 " y="-0" fill="rgb(255,255,255)">3</text>
   </g>
   <g font-style="normal" transform="translate(278.093,298.497) rotate(-0,3.5,-10)" font-family="FreeSans" font-weight="normal" font-size="12" xml:space="preserve">
    <text x="0 " y="-0" fill="rgb(255,255,255)">4</text>
   </g>
   <g font-style="normal" transform="translate(294.318,298.497) rotate(-0,3.5,-10)" font-family="FreeSans" font-weight="normal" font-size="12" xml:space="preserve">
    <text x="0 " y="-0" fill="rgb(255,255,255)">5</text>
   </g>
   <g font-style="normal" transform="translate(310.544,298.497) rotate(-0,3.5,-10)" font-family="FreeSans" font-weight="normal" font-size="12" xml:space="preserve">
    <text x="0 " y="-0" fill="rgb(255,255,255)">6</text>
   </g>
   <g font-style="normal" transform="translate(326.77,298.497) rotate(-0,3.5,-10)" font-family="FreeSans" font-weight="normal" font-size="12" xml:space="preserve">
    <text x="0 " y="-0" fill="rgb(255,255,255)">7</text>
   </g>
   <g font-style="normal" transform="translate(342.995,298.497) rotate(-0,3.5,-10)" font-family="FreeSans" font-weight="normal" font-size="12" xml:space="preserve">
    <text x="0 " y="-0" fill="rgb(255,255,255)">8</text>
   </g>
   <g font-style="normal" transform="translate(359.221,298.497) rotate(-0,3.5,-10)" font-family="FreeSans" font-weight="normal" font-size="12" xml:space="preserve">
    <text x="0 " y="-0" fill="rgb(255,255,255)">9</text>
   </g>
   <g font-style="normal" transform="translate(371.946,298.497) rotate(-0,7,-10)" font-family="FreeSans" font-weight="normal" font-size="12" xml:space="preserve">
    <text x="0 7 " y="-0" fill="rgb(255,255,255)">10</text>
   </g>
   <polyline stroke-dasharray="16,0" stroke-linejoin="miter" stroke-opacity="0.15" stroke-width="0.5" fill="none" stroke="#ffffff" points="54.4343,279.499 378.946,279.499" stroke-linecap="butt"/>
   <polyline stroke-dasharray="16,0" stroke-linejoin="miter" stroke-opacity="0.15" stroke-width="0.5" fill="none" stroke="#ffffff" points="54.4343,266.702 378.946,266.702" stroke-linecap="butt"/>
   <polyline stroke-dasharray="16,0" stroke-linejoin="miter" stroke-opacity="0.15" stroke-width="0.5" fill="none" stroke="#ffffff" points="54.4343,253.905 378.946,253.905" stroke-linecap="butt"/>
   <polyline stroke-dasharray="16,0" stroke-linejoin="miter" stroke-opacity="0.15" stroke-width="0.5" fill="none" stroke="#ffffff" points="54.4343,241.107 378.946,241.107" stroke-linecap="butt"/>
   <polyline stroke-dasharray="16,0" stroke-linejoin="miter" stroke-opacity="0.15" stroke-width="0.5" fill="none" stroke="#ffffff" points="54.4343,228.31 378.946,228.31" stroke-linecap="butt"/>
   <polyline stroke-dasharray="16,0" stroke-linejoin="miter" stroke-opacity="0.15" stroke-width="0.5" fill="none" stroke="#ffffff" points="54.4343,215.513 378.946,215.513" stroke-linecap="butt"/>
   <polyline stroke-dasharray="16,0" stroke-linejoin="miter" stroke-opacity="0.15" stroke-width="0.5" fill="none" stroke="#ffffff" points="54.4343,202.715 378.946,202.715" stroke-linecap="butt"/>
   <polyline stroke-dasharray="16,0" stroke-linejoin="miter" stroke-opacity="0.15" stroke-width="0.5" fill="none" stroke="#ffffff" points="54.4343,189.918 378.946,189.918" stroke-linecap="butt"/>
   <polyline stroke-dasharray="16,0" stroke-linejoin="miter" stroke-opacity="0.15" stroke-width="0.5" fill="none" stroke="#ffffff" points="54.4343,177.121 378.946,177.121" stroke-linecap="butt"/>
   <polyline stroke-dasharray="16,0" stroke-linejoin="miter" stroke-opacity="0.15" stroke-width="0.5" fill="none" stroke="#ffffff" points="54.4343,164.324 378.946,164.324" stroke-linecap="butt"/>
   <polyline stroke-dasharray="16,0" stroke-linejoin="miter" stroke-opacity="0.15" stroke-width="0.5" fill="none" stroke="#ffffff" points="54.4343,151.526 378.946,151.526" stroke-linecap="butt"/>
   <polyline stroke-dasharray="16,0" stroke-linejoin="miter" stroke-opacity="0.15" stroke-width="0.5" fill="none" stroke="#ffffff" points="54.4343,138.729 378.946,138.729" stroke-linecap="butt"/>
   <polyline stroke-dasharray="16,0" stroke-linejoin="miter" stroke-opacity="0.15" stroke-width="0.5" fill="none" stroke="#ffffff" points="54.4343,125.932 378.946,125.932" stroke-linecap="butt"/>
   <polyline stroke-dasharray="16,0" stroke-linejoin="miter" stroke-opacity="0.15" stroke-width="0.5" fill="none" stroke="#ffffff" points="54.4343,113.134 378.946,113.134" stroke-linecap="butt"/>
   <polyline stroke-dasharray="16,0" stroke-linejoin="miter" stroke-opacity="0.15" stroke-width="0.5" fill="none" stroke="#ffffff" points="54.4343,100.337 378.946,100.337" stroke-linecap="butt"/>
   <polyline stroke-dasharray="16,0" stroke-linejoin="miter" stroke-opacity="0.15" stroke-width="0.5" fill="none" stroke="#ffffff" points="54.4343,87.5398 378.946,87.5398" stroke-linecap="butt"/>
   <polyline stroke-dasharray="16,0" stroke-linejoin="miter" stroke-opacity="0.15" stroke-width="0.5" fill="none" stroke="#ffffff" points="54.4343,74.7425 378.946,74.7425" stroke-linecap="butt"/>
   <polyline stroke-dasharray="16,0" stroke-linejoin="miter" stroke-opacity="0.15" stroke-width="0.5" fill="none" stroke="#ffffff" points="54.4343,61.9452 378.946,61.9452" stroke-linecap="butt"/>
   <polyline stroke-dasharray="16,0" stroke-linejoin="miter" stroke-opacity="0.15" stroke-width="0.5" fill="none" stroke="#ffffff" points="54.4343,49.1479 378.946,49.1479" stroke-linecap="butt"/>
   <polyline stroke-dasharray="16,0" stroke-linejoin="miter" stroke-opacity="0.15" stroke-width="0.5" fill="none" stroke="#ffffff" points="54.4343,36.3506 378.946,36.3506" stroke-linecap="butt"/>
   <polyline stroke-dasharray="16,0" stroke-linejoin="miter" stroke-opacity="0.15" stroke-width="0.5" fill="none" stroke="#ffffff" points="54.4343,23.5533 378.946,23.5533" stroke-linecap="butt"/>
   <polyline stroke-linejoin="miter" stroke-width="0.5" fill="none" stroke="#ffffff" points="54.4343,279.499 57.6745,279.499" stroke-linecap="butt"/>
   <polyline stroke-linejoin="miter" stroke-width="0.5" fill="none" stroke="#ffffff" points="378.946,279.499 375.706,279.499" stroke-linecap="butt"/>
   <polyline stroke-linejoin="miter" stroke-width="0.5" fill="none" stroke="#ffffff" points="54.4343,266.702 57.6745,266.702" stroke-linecap="butt"/>
   <polyline stroke-linejoin="miter" stroke-width="0.5" fill="none" stroke="#ffffff" points="378.946,266.702 375.706,266.702" stroke-linecap="butt"/>
   <polyline stroke-linejoin="miter" stroke-width="0.5" fill="none" stroke="#ffffff" points="54.4343,253.905 57.6745,253.905" stroke-linecap="butt"/>
   <polyline stroke-linejoin="miter" stroke-width="0.5" fill="none" stroke="#ffffff" points="378.946,253.905 375.706,253.905" stroke-linecap="butt"/>
   <polyline stroke-linejoin="miter" stroke-width="0.5" fill="none" stroke="#ffffff" points="54.4343,241.107 57.6745,241.107" stroke-linecap="butt"/>
   <polyline stroke-linejoin="miter" stroke-width="0.5" fill="none" stroke="#ffffff" points="378.946,241.107 375.706,241.107" stroke-linecap="butt"/>
   <polyline stroke-linejoin="miter" stroke-width="0.5" fill="none" stroke="#ffffff" points="54.4343,228.31 57.6745,228.31" stroke-linecap="butt"/>
   <polyline stroke-linejoin="miter" stroke-width="0.5" fill="none" stroke="#ffffff" points="378.946,228.31 375.706,228.31" stroke-linecap="butt"/>
   <polyline stroke-linejoin="miter" stroke-width="0.5" fill="none" stroke="#ffffff" points="54.4343,215.513 57.6745,215.513" stroke-linecap="butt"/>
   <polyline stroke-linejoin="miter" stroke-width="0.5" fill="none" stroke="#ffffff" points="378.946,215.513 375.706,215.513" stroke-linecap="butt"/>
   <polyline stroke-linejoin="miter" stroke-width="0.5" fill="none" stroke="#ffffff" points="54.4343,202.715 57.6745,202.715" stroke-linecap="butt"/>
   <polyline stroke-linejoin="miter" stroke-width="0.5" fill="none" stroke="#ffffff" points="378.946,202.715 375.706,202.715" stroke-linecap="butt"/>
   <polyline stroke-linejoin="miter" stroke-width="0.5" fill="none" stroke="#ffffff" points="54.4343,189.918 57.6745,189.918" stroke-linecap="butt"/>
   <polyline stroke-linejoin="miter" stroke-width="0.5" fill="none" stroke="#ffffff" points="378.946,189.918 375.706,189.918" stroke-linecap="butt"/>
   <polyline stroke-linejoin="miter" stroke-width="0.5" fill="none" stroke="#ffffff" points="54.4343,177.121 57.6745,177.121" stroke-linecap="butt"/>
   <polyline stroke-linejoin="miter" stroke-width="0.5" fill="none" stroke="#ffffff" points="378.946,177.121 375.706,177.121" stroke-linecap="butt"/>
   <polyline stroke-linejoin="miter" stroke-width="0.5" fill="none" stroke="#ffffff" points="54.4343,164.324 57.6745,164.324" stroke-linecap="butt"/>
   <polyline stroke-linejoin="miter" stroke-width="0.5" fill="none" stroke="#ffffff" points="378.946,164.324 375.706,164.324" stroke-linecap="butt"/>
   <polyline stroke-linejoin="miter" stroke-width="0.5" fill="none" stroke="#ffffff" points="54.4343,151.526 57.6745,151.526" stroke-linecap="butt"/>
   <polyline stroke-linejoin="miter" stroke-width="0.5" fill="none" stroke="#ffffff" points="378.946,151.526 375.706,151.526" stroke-linecap="butt"/>
   <polyline stroke-linejoin="miter" stroke-width="0.5" fill="none" stroke="#ffffff" points="54.4343,138.729 57.6745,138.729" stroke-linecap="butt"/>
   <polyline stroke-linejoin="miter" stroke-width="0.5" fill="none" stroke="#ffffff" points="378.946,138.729 375.706,138.729" stroke-linecap="butt"/>
   <polyline stroke-linejoin="miter" stroke-width="0.5" fill="none" stroke="#ffffff" points="54.4343,125.932 57.6745,125.932" stroke-linecap="butt"/>
   <polyline stroke-linejoin="miter" stroke-width="0.5" fill="none" stroke="#ffffff" points="378.946,125.932 375.706,125.932" stroke-linecap="butt"/>
   <polyline stroke-linejoin="miter" stroke-width="0.5" fill="none" stroke="#ffffff" points="54.4343,113.134 57.6745,113.134" stroke-linecap="butt"/>
   <polyline stroke-linejoin="miter" stroke-width="0.5" fill="none" stroke="#ffffff" points="378.946,113.134 375.706,113.134" stroke-linecap="butt"/>
   <polyline stroke-linejoin="miter" stroke-width="0.5" fill="none" stroke="#ffffff" points="54.4343,100.337 57.6745,100.337" stroke-linecap="butt"/>
   <polyline stroke-linejoin="miter" stroke-width="0.5" fill="none" stroke="#ffffff" points="378.946,100.337 375.706,100.337" stroke-linecap="butt"/>
   <polyline stroke-linejoin="miter" stroke-width="0.5" fill="none" stroke="#ffffff" points="54.4343,87.5398 57.6745,87.5398" stroke-linecap="butt"/>
   <polyline stroke-linejoin="miter" stroke-width="0.5" fill="none" stroke="#ffffff" points="378.946,87.5398 375.706,87.5398" stroke-linecap="butt"/>
   <polyline stroke-linejoin="miter" stroke-width="0.5" fill="none" stroke="#ffffff" points="54.4343,74.7425 57.6745,74.7425" stroke-linecap="butt"/>
   <polyline stroke-linejoin="miter" stroke-width="0.5" fill="none" stroke="#ffffff" points="378.946,74.7425 375.706,74.7425" stroke-linecap="butt"/>
   <polyline stroke-linejoin="miter" stroke-width="0.5" fill="none" stroke="#ffffff" points="54.4343,61.9452 57.6745,61.9452" stroke-linecap="butt"/>
   <polyline stroke-linejoin="miter" stroke-width="0.5" fill="none" stroke="#ffffff" points="378.946,61.9452 375.706,61.9452" stroke-linecap="butt"/>
   <polyline stroke-linejoin="miter" stroke-width="0.5" fill="none" stroke="#ffffff" points="54.4343,49.1479 57.6745,49.1479" stroke-linecap="butt"/>
   <polyline stroke-linejoin="miter" stroke-width="0.5" fill="none" stroke="#ffffff" points="378.946,49.1479 375.706,49.1479" stroke-linecap="butt"/>
   <polyline stroke-linejoin="miter" stroke-width="0.5" fill="none" stroke="#ffffff" points="54.4343,36.3506 57.6745,36.3506" stroke-linecap="butt"/>
   <polyline stroke-linejoin="miter" stroke-width="0.5" fill="none" stroke="#ffffff" points="378.946,36.3506 375.706,36.3506" stroke-linecap="butt"/>
   <polyline stroke-linejoin="miter" stroke-width="0.5" fill="none" stroke="#ffffff" points="54.4343,23.5533 57.6745,23.5533" stroke-linecap="butt"/>
   <polyline stroke-linejoin="miter" stroke-width="0.5" fill="none" stroke="#ffffff" points="378.946,23.5533 375.706,23.5533" stroke-linecap="butt"/>
   <g font-style="normal" transform="translate(30.4433,284.499) rotate(-0,18,-5)" font-family="FreeSans" font-weight="normal" font-size="12" xml:space="preserve">
    <text x="0 4 11 " y="-0" fill="rgb(255,255,255)">-10</text>
   </g>
   <g font-style="normal" transform="translate(37.4433,271.702) rotate(-0,11,-5)" font-family="FreeSans" font-weight="normal" font-size="12" xml:space="preserve">
    <text x="0 4 " y="-0" fill="rgb(255,255,255)">-9</text>
   </g>
   <g font-style="normal" transform="translate(37.4433,258.905) rotate(-0,11,-5)" font-family="FreeSans" font-weight="normal" font-size="12" xml:space="preserve">
    <text x="0 4 " y="-0" fill="rgb(255,255,255)">-8</text>
   </g>
   <g font-style="normal" transform="translate(37.4433,246.107) rotate(-0,11,-5)" font-family="FreeSans" font-weight="normal" font-size="12" xml:space="preserve">
    <text x="0 4 " y="-0" fill="rgb(255,255,255)">-7</text>
   </g>
   <g font-style="normal" transform="translate(37.4433,233.31) rotate(-0,11,-5)" font-family="FreeSans" font-weight="normal" font-size="12" xml:space="preserve">
    <text x="0 4 " y="-0" fill="rgb(255,255,255)">-6</text>
   </g>
   <g font-style="normal" transform="translate(37.4433,220.513) rotate(-0,11,-5)" font-family="FreeSans" font-weight="normal" font-size="12" xml:space="preserve">
    <text x="0 4 " y="-0" fill="rgb(255,255,255)">-5</text>
   </g>
   <g font-style="normal" transform="translate(37.4433,207.715) rotate(-0,11,-5)" font-family="FreeSans" font-weight="normal" font-size="12" xml:space="preserve">
    <text x="0 4 " y="-0" fill="rgb(255,255,255)">-4</text>
   </g>
   <g font-style="normal" transform="translate(37.4433,194.918) rotate(-0,11,-5)" font-family="FreeSans" font-weight="normal" font-size="12" xml:space="preserve">
    <text x="0 4 " y="-0" fill="rgb(255,255,255)">-3</text>
   </g>
   <g font-style="normal" transform="translate(37.4433,182.121) rotate(-0,11,-5)" font-family="FreeSans" font-weight="normal" font-size="12" xml:space="preserve">
    <text x="0 4 " y="-0" fill="rgb(255,255,255)">-2</text>
   </g>
   <g font-style="normal" transform="translate(37.4433,169.324) rotate(-0,11,-5)" font-family="FreeSans" font-weight="normal" font-size="12" xml:space="preserve">
    <text x="0 4 " y="-0" fill="rgb(255,255,255)">-1</text>
   </g>
   <g font-style="normal" transform="translate(41.4433,156.526) rotate(-0,7,-5)" font-family="FreeSans" font-weight="normal" font-size="12" xml:space="preserve">
    <text x="0 " y="-0" fill="rgb(255,255,255)">0</text>
   </g>
   <g font-style="normal" transform="translate(41.4433,143.729) rotate(-0,7,-5)" font-family="FreeSans" font-weight="normal" font-size="12" xml:space="preserve">
    <text x="0 " y="-0" fill="rgb(255,255,255)">1</text>
   </g>
   <g font-style="normal" transform="translate(41.4433,130.932) rotate(-0,7,-5)" font-family="FreeSans" font-weight="normal" font-size="12" xml:space="preserve">
    <text x="0 " y="-0" fill="rgb(255,255,255)">2</text>
   </g>
   <g font-style="normal" transform="translate(41.4433,118.134) rotate(-0,7,-5)" font-family="FreeSans" font-weight="normal" font-size="12" xml:space="preserve">
    <text x="0 " y="-0" fill="rgb(255,255,255)">3</text>
   </g>
   <g font-style="normal" transform="translate(41.4433,105.337) rotate(-0,7,-5)" font-family="FreeSans" font-weight="normal" font-size="12" xml:space="preserve">
    <text x="0 " y="-0" fill="rgb(255,255,255)">4</text>
   </g>
   <g font-style="normal" transform="translate(41.4433,92.5398) rotate(-0,7,-5)" font-family="FreeSans" font-weight="normal" font-size="12" xml:space="preserve">
    <text x="0 " y="-0" fill="rgb(255,255,255)">5</text>
   </g>
   <g font-style="normal" transform="translate(41.4433,79.7425) rotate(-0,7,-5)" font-family="FreeSans" font-weight="normal" font-size="12" xml:space="preserve">
    <text x="0 " y="-0" fill="rgb(255,255,255)">6</text>
   </g>
   <g font-style="normal" transform="translate(41.4433,66.9452) rotate(-0,7,-5)" font-family="FreeSans" font-weight="normal" font-size="12" xml:space="preserve">
    <text x="0 " y="-0" fill="rgb(255,255,255)">7</text>
   </g>
   <g font-style="normal" transform="translate(41.4433,54.1479) rotate(-0,7,-5)" font-family="FreeSans" font-weight="normal" font-size="12" xml:space="preserve">
    <text x="0 " y="-0" fill="rgb(255,255,255)">8</text>
   </g>
   <g font-style="normal" transform="translate(41.4433,41.3506) rotate(-0,7,-5)" font-family="FreeSans" font-weight="normal" font-size="12" xml:space="preserve">
    <text x="0 " y="-0" fill="rgb(255,255,255)">9</text>
   </g>
   <g font-style="normal" transform="translate(34.4433,28.5533) rotate(-0,14,-5)" font-family="FreeSans" font-weight="normal" font-size="12" xml:space="preserve">
    <text x="0 7 " y="-0" fill="rgb(255,255,255)">10</text>
   </g>
   <polyline stroke-dasharray="16,0" stroke-linejoin="miter" stroke-width="0.5" fill="none" stroke="#ffffff" points="54.4343,279.499 378.946,279.499" stroke-linecap="square"/>
   <polyline stroke-dasharray="16,0" stroke-linejoin="miter" stroke-width="0.5" fill="none" stroke="#ffffff" points="54.4343,23.5533 378.946,23.5533" stroke-linecap="square"/>
   <polyline stroke-dasharray="16,0" stroke-linejoin="miter" stroke-width="0.5" fill="none" stroke="#ffffff" points="54.4343,279.499 54.4343,23.5533" stroke-linecap="square"/>
   <polyline stroke-dasharray="16,0" stroke-linejoin="miter" stroke-width="0.5" fill="none" stroke="#ffffff" points="378.946,279.499 378.946,23.5533" stroke-linecap="square"/>
   <g font-style="normal" transform="translate(213.69,311.497) rotate(-0,3,-8)" font-family="FreeSans" font-weight="normal" font-size="13.2" xml:space="preserve">
    <text x="0 " y="-0" fill="rgb(255,255,255)">x</text>
   </g>
   <g font-style="normal" transform="translate(16.4433,151.526) rotate(-90,9,0)" font-family="FreeSans" font-weight="normal" font-size="13.2" xml:space="preserve">
    <text x="0 4 8 14 " y="-3" fill="rgb(255,255,255)">f(x)</text>
   </g>
   <g font-style="normal" transform="translate(208.69,13.5533) rotate(-0,8,0)" font-family="FreeSans" font-weight="bold" font-size="14" xml:space="preserve">
    <text x="0 8 " y="-0" fill="rgb(255,255,255)">21</text>
   </g>
   <polyline stroke-linejoin="round" stroke-width="3" fill="none" stroke="#00ffff" points="54.4343,44.1478 70.6599,46.5862 86.8855,136.63 103.111,219.062 119.337,225.252 135.562,169.677 151.788,118.067 168.014,113.518 184.239,140.758 200.465,156.087 216.69,145.128 232.916,142.258 249.142,162.06 265.367,189.533 281.593,184.986 297.818,133.376 314.044,77.8007 330.27,83.9909 346.495,166.422 362.721,256.466 378.946,258.905" stroke-linecap="butt"/>
  </g>
  <clipPath id="cp00418314">
   <polygon points="0,314 418,314 418,0 0,0"/>
  </clipPath>
  <g clip-path="url(#cp00418314)">
   <polygon shape-rendering="crispEdges" fill="#000000" points="225.894,51.5743 370.936,51.5743 370.936,31.5638 225.894,31.5638"/>
   <polyline stroke-dasharray="16,0" stroke-linejoin="miter" stroke-width="0.5" fill="none" stroke="#ffffff" points="225.894,51.5743 370.936,51.5743" stroke-linecap="square"/>
   <polyline stroke-dasharray="16,0" stroke-linejoin="miter" stroke-width="0.5" fill="none" stroke="#ffffff" points="225.894,31.5638 370.936,31.5638" stroke-linecap="square"/>
   <polyline stroke-dasharray="16,0" stroke-linejoin="miter" stroke-width="0.5" fill="none" stroke="#ffffff" points="225.894,51.5743 225.894,31.5638" stroke-linecap="square"/>
   <polyline stroke-dasharray="16,0" stroke-linejoin="miter" stroke-width="0.5" fill="none" stroke="#ffffff" points="370.936,51.5743 370.936,31.5638" stroke-linecap="square"/>
   <polyline stroke-linejoin="round" stroke-width="3" fill="none" stroke="#00ffff" points="229.899,41.5691 249.925,41.5691" stroke-linecap="butt"/>
   <g font-style="normal" transform="translate(253.931,47.5691) rotate(-0,-0,-6)" font-family="FreeSans" font-weight="bold" font-size="10" xml:space="preserve">
    <text x="0 6 9 15 18 22 28 33 39 42 45 50 " y="-2" fill="rgb(255,255,255)">0.5.*exp(-x.</text>
    <text x="53 " y="-6" fill="rgb(255,255,255)" font-size="7">2</text>
    <text x="57 60 63 69 72 77 80 84 90 96 102 105 110 " y="-2" fill="rgb(255,255,255)">) + x.*cos(x)</text>
   </g>
  </g>
 </g>
</svg>
